<svg id="Layer_1" data-name="Layer 1" xmlns="http://www.w3.org/2000/svg" viewBox="0 0 185.54 209.96"><defs><style>.cls-1{fill:#007bff;}</style></defs><polygon class="cls-1" points="0 53.56 0 160.68 88.61 209.96 88.61 182.01 88.61 62.04 58.03 90.39 58.03 165.15 50.7 161.15 50.7 96.32 31.81 113.09 31.81 150.86 24.2 146.71 24.2 67.53 92.77 27.94 92.77 0 0 53.56"/><polygon class="cls-1" points="92.77 0 92.77 27.94 161.34 67.53 161.34 146.71 153.73 150.86 153.73 113.09 134.84 96.32 134.84 161.15 127.51 165.15 127.51 90.39 96.93 62.04 96.93 182.01 96.93 209.96 185.54 160.68 185.54 53.56 92.77 0"/></svg>